<svg width="206" height="46" viewBox="0 0 206 46" fill="none" xmlns="http://www.w3.org/2000/svg">
<path d="M74.9791 18.6469C74.7884 17.9818 74.5207 17.3941 74.1758 16.8838C73.8309 16.3645 73.4088 15.9271 72.9096 15.5718C72.4195 15.2073 71.8567 14.9294 71.2214 14.738C70.5951 14.5467 69.9007 14.451 69.1383 14.451C67.7133 14.451 66.4607 14.8064 65.3806 15.5171C64.3096 16.2278 63.4745 17.262 62.8755 18.6196C62.2764 19.9681 61.9769 21.6173 61.9769 23.5672C61.9769 25.5171 62.2719 27.1754 62.8619 28.5421C63.4518 29.9089 64.2869 30.9522 65.367 31.672C66.4471 32.3827 67.7224 32.738 69.1928 32.738C70.527 32.738 71.6661 32.5011 72.6101 32.0273C73.5631 31.5444 74.2892 30.8656 74.7884 29.9909C75.2967 29.1162 75.5509 28.082 75.5509 26.8884L76.749 27.0661H69.5604V22.6105H81.2283V26.1367C81.2283 28.5968 80.7109 30.7107 79.6762 32.4784C78.6414 34.2369 77.2164 35.5945 75.4011 36.5513C73.5858 37.4989 71.5073 37.9727 69.1655 37.9727C66.5515 37.9727 64.2551 37.3941 62.2764 36.2369C60.2977 35.0706 58.7547 33.4169 57.6474 31.2756C56.5491 29.1253 56 26.574 56 23.6219C56 21.3531 56.3268 19.3303 56.9803 17.5535C57.6429 15.7677 58.5687 14.2551 59.7577 13.0159C60.9467 11.7768 62.3309 10.8337 63.9102 10.1868C65.4895 9.53986 67.2005 9.2164 69.043 9.2164C70.6223 9.2164 72.0927 9.44875 73.4542 9.91344C74.8157 10.369 76.0229 11.0159 77.0757 11.8542C78.1377 12.6925 79.0045 13.6902 79.6762 14.8474C80.3478 15.9954 80.779 17.262 80.9696 18.6469H74.9791Z" fill="white"/>
<path d="M84.411 37.59V16.5968H90.0339V20.2597H90.2518C90.633 18.9567 91.2729 17.9727 92.1715 17.3075C93.07 16.6333 94.1048 16.2961 95.2756 16.2961C95.5661 16.2961 95.8792 16.3144 96.2151 16.3508C96.5509 16.3872 96.8459 16.4374 97.1 16.5011V21.6674C96.8277 21.5854 96.4511 21.5125 95.97 21.4487C95.4889 21.385 95.0487 21.3531 94.6494 21.3531C93.7962 21.3531 93.0337 21.5399 92.3621 21.9134C91.6995 22.2779 91.173 22.7882 90.7828 23.4442C90.4015 24.1002 90.2109 24.8565 90.2109 25.713V37.59H84.411Z" fill="white"/>
<path d="M98.9622 37.59V16.5968H104.762V37.59H98.9622ZM101.876 13.8907C101.013 13.8907 100.274 13.6036 99.6565 13.0296C99.0484 12.4465 98.7443 11.7494 98.7443 10.9385C98.7443 10.1367 99.0484 9.44875 99.6565 8.87472C100.274 8.29157 101.013 8 101.876 8C102.738 8 103.473 8.29157 104.081 8.87472C104.699 9.44875 105.007 10.1367 105.007 10.9385C105.007 11.7494 104.699 12.4465 104.081 13.0296C103.473 13.6036 102.738 13.8907 101.876 13.8907Z" fill="white"/>
<path d="M115.978 37.9317C114.389 37.9317 112.951 37.5216 111.662 36.7016C110.382 35.8724 109.365 34.656 108.612 33.0524C107.868 31.4396 107.496 29.4624 107.496 27.1207C107.496 24.7153 107.881 22.7153 108.653 21.1207C109.424 19.5171 110.45 18.3189 111.73 17.5262C113.019 16.7244 114.43 16.3235 115.964 16.3235C117.135 16.3235 118.111 16.5239 118.891 16.9248C119.681 17.3166 120.316 17.8087 120.797 18.4009C121.287 18.9841 121.66 19.5581 121.914 20.123H122.091V9.59909H127.877V37.59H122.159V34.2278H121.914C121.641 34.8109 121.256 35.3895 120.756 35.9636C120.266 36.5285 119.626 36.9977 118.837 37.3713C118.056 37.7449 117.103 37.9317 115.978 37.9317ZM117.816 33.2984C118.75 33.2984 119.54 33.0433 120.185 32.533C120.838 32.0137 121.337 31.2893 121.682 30.3599C122.036 29.4305 122.213 28.3417 122.213 27.0934C122.213 25.8451 122.041 24.7608 121.696 23.8405C121.351 22.9203 120.852 22.2096 120.198 21.7084C119.545 21.2073 118.75 20.9567 117.816 20.9567C116.863 20.9567 116.059 21.2164 115.406 21.7358C114.752 22.2551 114.258 22.9749 113.922 23.8952C113.586 24.8155 113.418 25.8815 113.418 27.0934C113.418 28.3144 113.586 29.3941 113.922 30.3326C114.267 31.262 114.761 31.9909 115.406 32.5194C116.059 33.0387 116.863 33.2984 117.816 33.2984Z" fill="white"/>
<path d="M142.169 16.5968V20.4237H130.148V16.5968H142.169ZM133.116 11.5672H138.044V31.2756C138.044 31.9408 138.144 32.451 138.344 32.8064C138.552 33.1526 138.825 33.3895 139.161 33.5171C139.496 33.6446 139.869 33.7084 140.277 33.7084C140.586 33.7084 140.867 33.6857 141.121 33.6401C141.384 33.5945 141.584 33.5535 141.72 33.5171L142.551 37.385C142.287 37.4761 141.911 37.5763 141.421 37.6857C140.94 37.795 140.35 37.8588 139.651 37.877C138.416 37.9134 137.304 37.7267 136.315 37.3166C135.326 36.8975 134.541 36.2506 133.96 35.3759C133.388 34.5011 133.106 33.4077 133.116 32.0957V11.5672Z" fill="white"/>
<path d="M154.188 38C152.092 38 150.281 37.5626 148.756 36.6879C147.24 35.8041 146.074 34.5558 145.257 32.9431C144.44 31.3212 144.032 29.4123 144.032 27.2164C144.032 25.0569 144.44 23.1617 145.257 21.5308C146.083 19.8907 147.236 18.615 148.715 17.7039C150.195 16.7836 151.933 16.3235 153.93 16.3235C155.218 16.3235 156.435 16.533 157.578 16.9522C158.731 17.3622 159.748 18 160.628 18.8656C161.518 19.7312 162.216 20.8337 162.725 22.1731C163.233 23.5034 163.487 25.0888 163.487 26.9294V28.4465H146.346V25.1116H158.763C158.754 24.164 158.549 23.3212 158.15 22.5831C157.751 21.836 157.193 21.2483 156.475 20.82C155.768 20.3918 154.942 20.1777 153.998 20.1777C152.99 20.1777 152.105 20.4237 151.343 20.9157C150.58 21.3986 149.986 22.0364 149.559 22.8292C149.142 23.6128 148.928 24.4738 148.919 25.4123V28.3235C148.919 29.5444 149.142 30.5923 149.586 31.467C150.031 32.3326 150.653 32.9977 151.452 33.4624C152.25 33.918 153.185 34.1458 154.256 34.1458C154.973 34.1458 155.622 34.0456 156.203 33.8451C156.784 33.6355 157.288 33.3303 157.714 32.9294C158.141 32.5285 158.463 32.0319 158.681 31.4396L163.283 31.959C162.992 33.18 162.439 34.246 161.622 35.1572C160.814 36.0592 159.779 36.7608 158.518 37.262C157.256 37.754 155.813 38 154.188 38Z" fill="white"/>
<path d="M175.642 38C173.554 38 171.762 37.5399 170.264 36.6196C168.776 35.6993 167.627 34.4282 166.82 32.8064C166.021 31.1754 165.622 29.2984 165.622 27.1754C165.622 25.0433 166.03 23.1617 166.847 21.5308C167.664 19.8907 168.816 18.615 170.305 17.7039C171.803 16.7836 173.573 16.3235 175.615 16.3235C177.312 16.3235 178.814 16.6378 180.121 17.2665C181.437 17.8861 182.486 18.7654 183.266 19.9043C184.047 21.0342 184.492 22.3554 184.601 23.8679H179.89C179.699 22.8565 179.245 22.0137 178.528 21.3394C177.82 20.656 176.872 20.3144 175.683 20.3144C174.675 20.3144 173.79 20.5877 173.028 21.1344C172.266 21.672 171.671 22.4465 171.244 23.4579C170.827 24.4692 170.618 25.6811 170.618 27.0934C170.618 28.5239 170.827 29.754 171.244 30.7836C171.662 31.8041 172.247 32.5923 173.001 33.1481C173.763 33.6948 174.657 33.9681 175.683 33.9681C176.409 33.9681 177.058 33.8314 177.63 33.5581C178.211 33.2756 178.696 32.8702 179.087 32.3417C179.477 31.8132 179.745 31.1708 179.89 30.4146H184.601C184.483 31.8998 184.047 33.2164 183.294 34.3645C182.54 35.5034 181.515 36.3964 180.217 37.0433C178.919 37.6811 177.394 38 175.642 38Z" fill="white"/>
<path d="M192.44 25.2893V37.59H187.511V9.59909H192.331V20.164H192.576C193.066 18.9795 193.824 18.0456 194.849 17.3622C195.884 16.6697 197.2 16.3235 198.798 16.3235C200.25 16.3235 201.516 16.6287 202.596 17.2392C203.676 17.8497 204.511 18.7426 205.101 19.918C205.7 21.0934 206 22.5285 206 24.2232V37.59H201.071V24.9886C201.071 23.5763 200.708 22.4784 199.982 21.6948C199.265 20.9021 198.258 20.5057 196.96 20.5057C196.088 20.5057 195.308 20.697 194.618 21.0797C193.937 21.4533 193.402 21.9954 193.011 22.7062C192.63 23.4169 192.44 24.2779 192.44 25.2893Z" fill="white"/>
<g clip-path="url(#clip0_3010_1093)">
<path fill-rule="evenodd" clip-rule="evenodd" d="M26.2901 26.2903C27.1729 25.4075 28.6041 25.4075 29.4869 26.2903C30.3697 27.1731 30.3697 28.6043 29.4869 29.4871C28.7817 30.1922 27.7269 30.3339 26.881 29.9127C26.0226 30.771 25.1645 31.629 24.3061 32.4872C24.1758 32.6195 23.9946 32.7015 23.7942 32.7015H20.6104L13.7111 39.6008C13.4305 39.8815 12.9754 39.8815 12.6948 39.6008C12.4142 39.3201 12.4142 38.8651 12.6948 38.5845L19.8046 31.4747C19.945 31.3344 20.1289 31.2642 20.3128 31.2642L23.4966 31.2641C24.2858 30.4748 25.0751 29.6855 25.8644 28.8963C25.4432 28.0503 25.5849 26.9954 26.2901 26.2903ZM17.6719 20.7034C18.5179 21.1247 19.5727 20.9829 20.2779 20.2777C21.1607 19.3949 21.1607 17.9637 20.2779 17.0809C19.395 16.198 17.9639 16.198 17.0811 17.0809C16.3759 17.7861 16.2341 18.841 16.6555 19.6869C15.7972 20.5452 14.939 21.4034 14.0809 22.2617C13.9486 22.392 13.8667 22.5732 13.8667 22.7735V25.9573L6.96738 32.8566C6.68671 33.1372 6.68671 33.5923 6.96738 33.8729C7.24805 34.1536 7.70311 34.1536 7.9837 33.8729L15.0935 26.7631C15.2338 26.6228 15.304 26.4389 15.3041 26.2549V23.0712C16.0934 22.2819 16.8825 21.4928 17.6719 20.7034ZM26.716 20.8685C27.562 21.2897 28.6169 21.1481 29.3219 20.4429C30.2048 19.5601 30.2048 18.1289 29.3219 17.246C28.4391 16.3632 27.0079 16.3632 26.125 17.246C25.4199 17.9511 25.2782 19.0061 25.6994 19.8521C19.6107 25.9408 13.5221 32.0294 7.4334 38.1181C7.15273 38.3988 7.15273 38.8538 7.4334 39.1344C7.71407 39.4151 8.16913 39.4151 8.44972 39.1344C14.5385 33.0459 20.6275 26.9571 26.716 20.8685ZM5.26044 29.543L9.96457 24.8388C9.41006 20.8865 10.6521 16.7308 13.6913 13.6915C18.8323 8.55043 27.1675 8.55043 32.3086 13.6915C37.4494 18.8322 37.4496 27.1675 32.3084 32.3086C29.2692 35.3479 25.1132 36.5899 21.1611 36.0353L16.4566 40.7398C17.3977 41.0861 18.3606 41.3553 19.3359 41.547L19.6599 42.3885L20.7732 45.2812H23H25.2267L26.34 42.3885L26.6643 41.5459C29.0755 41.0717 31.4121 40.1257 33.5251 38.7061L34.3478 39.0716L37.1806 40.3297L38.755 38.7553L40.3296 37.1807L39.0715 34.3479L38.7066 33.5263C40.1262 31.4124 41.0729 29.0754 41.547 26.6641L42.3885 26.3401L45.2812 25.2268V23V20.7733L42.3885 19.66L41.5459 19.3356C41.0718 16.9244 40.1257 14.5879 38.7062 12.4747L39.0717 11.652L40.3297 8.81933L38.7553 7.24491L37.1807 5.67031L34.348 6.9283L33.5262 7.29334C31.4123 5.87371 29.0754 4.92685 26.664 4.45293L26.3399 3.61136L25.2268 0.71875H23H20.7732L19.66 3.61136L19.3356 4.45409C16.9244 4.9282 14.588 5.87425 12.4748 7.2937L11.652 6.9283L8.81933 5.67022L7.24464 7.24482L5.67022 8.81933L6.92821 11.652L7.2937 12.4747C5.87407 14.5881 4.92811 16.9245 4.454 19.3356L3.61136 19.66L0.71875 20.7732V23V25.2268L3.61136 26.34L4.45391 26.6643C4.64546 27.6393 4.91427 28.6021 5.26044 29.543Z" fill="white"/>
</g>
<defs>
<clipPath id="clip0_3010_1093">
<rect width="46" height="46" fill="white"/>
</clipPath>
</defs>
</svg>
