<svg width="46" height="46" viewBox="0 0 46 46" fill="none" xmlns="http://www.w3.org/2000/svg">
<g clip-path="url(#clip0_3036_2147)">
<path fill-rule="evenodd" clip-rule="evenodd" d="M26.2901 26.2903C27.1729 25.4075 28.6041 25.4075 29.4869 26.2903C30.3697 27.1731 30.3697 28.6043 29.4869 29.4871C28.7817 30.1922 27.7269 30.3339 26.881 29.9127C26.0226 30.771 25.1645 31.629 24.3061 32.4872C24.1758 32.6195 23.9946 32.7015 23.7942 32.7015H20.6104L13.7111 39.6008C13.4305 39.8815 12.9754 39.8815 12.6948 39.6008C12.4142 39.3201 12.4142 38.8651 12.6948 38.5845L19.8046 31.4747C19.945 31.3344 20.1289 31.2642 20.3128 31.2642L23.4966 31.2641C24.2858 30.4748 25.0751 29.6855 25.8644 28.8963C25.4432 28.0503 25.5849 26.9954 26.2901 26.2903ZM17.6719 20.7034C18.5179 21.1247 19.5727 20.9829 20.2779 20.2777C21.1607 19.3949 21.1607 17.9637 20.2779 17.0809C19.395 16.198 17.9639 16.198 17.0811 17.0809C16.3759 17.7861 16.2341 18.841 16.6555 19.6869C15.7972 20.5452 14.939 21.4034 14.0809 22.2617C13.9486 22.392 13.8667 22.5732 13.8667 22.7735V25.9573L6.96738 32.8566C6.68671 33.1372 6.68671 33.5923 6.96738 33.8729C7.24805 34.1536 7.70311 34.1536 7.9837 33.8729L15.0935 26.7631C15.2338 26.6228 15.304 26.4389 15.3041 26.2549V23.0712C16.0934 22.2819 16.8825 21.4928 17.6719 20.7034ZM26.716 20.8685C27.562 21.2897 28.6169 21.1481 29.3219 20.4429C30.2048 19.5601 30.2048 18.1289 29.3219 17.246C28.4391 16.3632 27.0079 16.3632 26.125 17.246C25.4199 17.9511 25.2782 19.0061 25.6994 19.8521C19.6107 25.9408 13.5221 32.0294 7.4334 38.1181C7.15273 38.3988 7.15273 38.8538 7.4334 39.1344C7.71407 39.4151 8.16913 39.4151 8.44972 39.1344C14.5385 33.0459 20.6275 26.9571 26.716 20.8685ZM5.26044 29.543L9.96457 24.8388C9.41006 20.8865 10.6521 16.7308 13.6913 13.6915C18.8323 8.55043 27.1675 8.55043 32.3086 13.6915C37.4494 18.8322 37.4496 27.1675 32.3084 32.3086C29.2692 35.3479 25.1132 36.5899 21.1611 36.0353L16.4566 40.7398C17.3977 41.0861 18.3606 41.3553 19.3359 41.547L19.6599 42.3885L20.7732 45.2812H23H25.2267L26.34 42.3885L26.6643 41.5459C29.0755 41.0717 31.4121 40.1257 33.5251 38.7061L34.3478 39.0716L37.1806 40.3297L38.755 38.7553L40.3296 37.1807L39.0715 34.3479L38.7066 33.5263C40.1262 31.4124 41.0729 29.0754 41.547 26.6641L42.3885 26.3401L45.2812 25.2268V23V20.7733L42.3885 19.66L41.5459 19.3356C41.0718 16.9244 40.1257 14.5879 38.7062 12.4747L39.0717 11.652L40.3297 8.81933L38.7553 7.24491L37.1807 5.67031L34.348 6.9283L33.5262 7.29334C31.4123 5.87371 29.0754 4.92685 26.664 4.45293L26.3399 3.61136L25.2268 0.71875H23H20.7732L19.66 3.61136L19.3356 4.45409C16.9244 4.9282 14.588 5.87425 12.4748 7.2937L11.652 6.9283L8.81933 5.67022L7.24464 7.24482L5.67022 8.81933L6.92821 11.652L7.2937 12.4747C5.87407 14.5881 4.92811 16.9245 4.454 19.3356L3.61136 19.66L0.71875 20.7732V23V25.2268L3.61136 26.34L4.45391 26.6643C4.64546 27.6393 4.91427 28.6021 5.26044 29.543Z" fill="#8339FF"/>
</g>
<defs>
<clipPath id="clip0_3036_2147">
<rect width="46" height="46" fill="white"/>
</clipPath>
</defs>
</svg>
